<?xml version="1.0" encoding="utf-8"?>
<!-- Generator: Adobe Illustrator 19.0.0, SVG Export Plug-In . SVG Version: 6.00 Build 0)  -->
<svg version="1.1" id="Layer_1" xmlns="http://www.w3.org/2000/svg" xmlns:xlink="http://www.w3.org/1999/xlink" x="0px" y="0px"
	 viewBox="0 0 600 600" style="enable-background:new 0 0 600 600;" xml:space="preserve">
<style type="text/css">
	.st0{fill:#414042;}
	.st1{fill:#FFFFFF;}
</style>
<g id="XMLID_1_">
	<g id="XMLID_342_">
		<path id="XMLID_374_" class="st0" d="M400.6,280.1c0,36.1-72.9,49.7-162.8,49.7S91,323.9,91,291.2c0-4.7,55.3-37.4,55.3-37.4
			c29.1,0,31.8,1.1,91.5,1.1c48.1,0,115.3,0,147.5,0C385.3,255,400.6,273.6,400.6,280.1z"/>
		<path id="XMLID_375_" class="st0" d="M237.8,339.3c-85.5,0-156.3-3.6-156.3-48.1c0-5.6,0-10.1,59.9-45.6c1.5-0.9,3.1-1.3,4.9-1.3
			c12.1,0,19.7,0.2,28.5,0.4c12.4,0.3,27.9,0.7,63,0.7h147.5c2.9,0,5.6,1.3,7.4,3.5c11.6,14.2,17.5,24.6,17.5,31.2
			C410.2,329.1,316.4,339.3,237.8,339.3z M100.9,294.3c5.3,22.7,68.6,25.9,136.9,25.9c93.9,0,152.5-15.2,153.3-39.7
			c-0.8-2.6-5.3-9.6-10.4-16.1H237.8c-35.3,0-50.9-0.4-63.5-0.7c-8-0.2-15.1-0.4-25.4-0.4C129.6,274.9,108,288.6,100.9,294.3z"/>
	</g>
	<path id="XMLID_371_" class="st1" d="M152.8,342.3c-16.6,2.4-31.7-10.3-33.9-28.3c-2.2-18,9.5-34.4,26-36.8"/>
	<g id="XMLID_338_">
		<path id="XMLID_352_" class="st1" d="M480,253.8c0.8,7,0.9,15.2,0,22.4c-18,145.4-65.4,244.1-166.8,244.1
			c-104.8,0-150.9-102.5-166.8-244.5c-0.8-7.2-0.8-15,0-22.1"/>
		<path id="XMLID_336_" class="st0" d="M490,269.8c0.2-5.5,0.1-11.3-0.6-16.9c-0.6-5.2-5.2-9-10.5-8.5c-5.2,0.6-9,5.3-8.5,10.5
			c0.7,6.9,0.8,14.3,0,20.2c-19.7,158.6-71.1,235.8-157.4,235.8c-88.1,0-139.5-77.2-157.4-236c-0.7-6.3-0.7-13.4,0-20
			c0.6-5.2-3.2-9.9-8.5-10.5c-5.2-0.6-9.9,3.2-10.5,8.5c-0.6,5.5-0.7,11.2-0.5,16.8c-17.7,6.3-29.4,25.2-26.9,45.6
			c1.4,11.6,7.3,22.1,16.2,28.9c6.8,5.2,14.9,8,23.2,8c0.1,0,0.2,0,0.2,0c9.5,42.4,22.4,76.9,39.2,104.3
			c29.9,48.8,72,73.5,124.9,73.5c51.6,0,92.9-24.2,122.8-72c17.2-27.5,30.6-62.5,40.6-105.8c0.2,0,0.3,0,0.5,0
			c8.3,0,16.4-2.8,23.2-8c8.9-6.8,14.8-17.4,16.2-28.9C518.9,295,507.4,276.2,490,269.8z M137.2,329c-4.8-3.7-8.1-9.6-8.9-16.1
			c-1.2-9.6,3-18.6,10-23.2c1.9,15.1,4.1,29.4,6.7,42.9C142.3,332,139.6,330.8,137.2,329z M497.5,312.9c-0.8,6.5-4,12.4-8.9,16.1
			c-2.4,1.8-5.1,3.1-7.9,3.6c2.7-13.5,5-27.7,7.1-42.7C494.6,294.6,498.6,303.4,497.5,312.9z"/>
	</g>
	<path id="XMLID_330_" class="st0" d="M432.8,294.4l-78.4-1.4c-5.3-0.1-9.6,4.1-9.7,9.4c-0.1,5.3,4.1,9.6,9.4,9.7l13.8,0.2
		c-1.1,2.9-1.7,6-1.7,9.3c0,15,12.2,27.2,27.2,27.2c15,0,27.2-12.2,27.2-27.2c0-2.9-0.5-5.8-1.3-8.4l13.1,0.2c0.1,0,0.1,0,0.2,0
		c5.2,0,9.4-4.2,9.5-9.4C442.2,298.9,438,294.5,432.8,294.4z M393.4,329.8c-4.5,0-8.2-3.7-8.2-8.2s3.7-8.2,8.2-8.2s8.2,3.7,8.2,8.2
		S397.9,329.8,393.4,329.8z"/>
	<path id="XMLID_337_" class="st0" d="M274.7,281.7l-78.1,7.8c-5.2,0.5-9.1,5.2-8.5,10.4c0.5,4.9,4.6,8.6,9.5,8.6c0.3,0,0.6,0,1,0
		l12.1-1.2c-0.8,2.5-1.2,5.3-1.2,8.1c0,15,12.2,27.2,27.2,27.2s27.2-12.2,27.2-27.2c0-4.7-1.2-9.2-3.3-13.1l16.1-1.6
		c5.2-0.5,9.1-5.2,8.5-10.4C284.6,285,280,281.2,274.7,281.7z M236.6,323.5c-4.5,0-8.2-3.7-8.2-8.2s3.7-8.2,8.2-8.2s8.2,3.7,8.2,8.2
		S241.1,323.5,236.6,323.5z"/>
	<g id="XMLID_333_">
		<path id="XMLID_361_" class="st0" d="M313.1,468.7c-22.3,0-41.9-4.9-43.4-5.2c-5.1-1.3-8.2-6.5-6.9-11.6c1.3-5.1,6.5-8.2,11.6-6.9
			c15.1,3.8,58.3,10.3,77.3-5c4.1-3.3,10.1-2.7,13.4,1.4c3.3,4.1,2.7,10.1-1.4,13.4C350.3,465.6,330.8,468.7,313.1,468.7z"/>
	</g>
	<g id="XMLID_332_">
		<path id="XMLID_360_" class="st0" d="M313.1,400.9c-33.2,0-36.8-21.6-36.8-30.9c0-5.3,4.3-9.5,9.5-9.5c5.3,0,9.5,4.3,9.5,9.5
			c0,4.4,0,11.8,17.7,11.8s17.7-7.4,17.7-11.8c0-5.3,4.3-9.5,9.5-9.5c5.3,0,9.5,4.3,9.5,9.5C349.9,379.3,346.3,400.9,313.1,400.9z"
			/>
	</g>
	<g id="XMLID_328_">
		<circle id="XMLID_354_" class="st0" cx="387.4" cy="232.2" r="6.2"/>
	</g>
	<g id="XMLID_327_">
		<circle id="XMLID_351_" class="st0" cx="357.7" cy="232.2" r="6.2"/>
	</g>
	<g id="XMLID_326_">
		<circle id="XMLID_349_" class="st0" cx="328" cy="232.2" r="6.2"/>
	</g>
	<g id="XMLID_325_">
		<circle id="XMLID_347_" class="st0" cx="298.3" cy="232.2" r="6.2"/>
	</g>
	<g id="XMLID_324_">
		<circle id="XMLID_345_" class="st0" cx="268.6" cy="232.2" r="6.2"/>
	</g>
	<path id="XMLID_381_" class="st0" d="M451.7,115.7c-28.1-32-73.3-47.5-138-47.5c-67.5,0-111.9,15.1-139.8,47.6
		c-25.3,29.4-36.5,72-36.5,138.1c0,5.3,4.3,9.5,9.5,9.5h333.7c5.3,0,9.5-4.3,9.5-9.5C490,189.3,477.9,145.4,451.7,115.7z M424,244.3
		v-25.5h6.6c5.3,0,9.5-4.3,9.5-9.5c0-53.8-27.1-74.8-96.5-74.8c-69.5,0-96.5,21-96.5,74.8c0,5.3,4.3,9.5,9.5,9.5h148.3v25.5H156.5
		c1-55.8,10.9-91.8,31.8-116.1c24-27.9,63.9-40.9,125.4-40.9c110.2,0,154.9,44.2,157.2,157.1H424z M416.7,185.4
		c-2.5,0-4.8,0.3-6.8,0.9v-3.5c0-5.3-4.3-9.5-9.5-9.5c-14.2,0-24.4,4.8-31.3,10.1v-14.2c0-5.3-4.3-9.5-9.5-9.5
		c-17.2,0-28.5,10.6-35.3,20.8c-1-4.1-4.8-7.2-9.2-7.2c-19.5,0-31.4,9-37.7,16c-1.7-2.3-4.5-3.9-7.6-3.9c-0.3,0-0.6,0-0.8,0
		c6.1-21.5,24.8-31.8,74.8-31.8c50.1,0,68.8,10.4,74.9,32C417.9,185.4,417.3,185.4,416.7,185.4z"/>
</g>
</svg>
