<?xml version="1.0" encoding="utf-8"?>
<!-- Generator: Adobe Illustrator 18.1.1, SVG Export Plug-In . SVG Version: 6.00 Build 0)  -->
<svg version="1.1" id="Layer_1" xmlns="http://www.w3.org/2000/svg" xmlns:xlink="http://www.w3.org/1999/xlink" x="0px" y="0px"
	 viewBox="0 0 500 500" enable-background="new 0 0 500 500" xml:space="preserve">
<g>
	<path fill="#57BD8B" d="M368.8,275.1l-3.1-2.6l8.3-9.8c2.3-2.7,6.8-4,10.1-2.8l7.4,2.5c1.8,0.6,4.6-0.1,5.8-1.6l5-6
		c2.3-2.7,6.8-4,10.1-2.8l12.2,4.1l-1.3,3.8l-12.2-4.1c-1.8-0.6-4.6,0.1-5.8,1.6l-5,6c-2.3,2.7-6.7,4-10.1,2.8l-7.4-2.5
		c-1.8-0.6-4.6,0.1-5.8,1.6L368.8,275.1z"/>
</g>
<g>
	<path fill="#D95E40" d="M216.1,95.6l-7.5-10.4c-1.1-1.6-3.8-2.5-5.7-2.1l-7.6,1.9c-3.5,0.9-7.8-0.7-9.9-3.6l-4.6-6.3
		c-1.1-1.6-3.8-2.5-5.7-2.1l-12.4,3.1l-1-3.9l12.4-3.1c3.5-0.9,7.8,0.7,9.9,3.6l4.6,6.3c1.1,1.6,3.8,2.5,5.7,2.1l7.6-1.9
		c3.5-0.9,7.8,0.7,9.9,3.6l7.5,10.4L216.1,95.6z"/>
</g>
<g>
	<path fill="#539ECC" d="M98,465.1l-8.9-9.2c-1.3-1.4-4.1-2-5.9-1.3l-7.2,2.9c-3.3,1.3-7.8,0.4-10.3-2.2l-5.4-5.6
		c-1.3-1.4-4.1-2-5.9-1.3l-11.9,4.8l-1.5-3.7l11.9-4.8c3.3-1.3,7.8-0.4,10.3,2.2l5.4,5.6c1.3,1.4,4.1,2,5.9,1.3l7.2-2.9
		c3.3-1.3,7.8-0.4,10.3,2.2l8.9,9.2L98,465.1z"/>
</g>
<g>
	<path fill="#57BD8B" d="M30.1,302.1c-5.2,0-9.5-4.3-9.5-9.5s4.3-9.5,9.5-9.5s9.5,4.3,9.5,9.5S35.3,302.1,30.1,302.1z M30.1,287.1
		c-3,0-5.5,2.5-5.5,5.5s2.5,5.5,5.5,5.5s5.5-2.5,5.5-5.5S33.1,287.1,30.1,287.1z"/>
</g>
<g>
	<path fill="#539ECC" d="M310.1,126.1c-5.2,0-9.5-4.3-9.5-9.5s4.3-9.5,9.5-9.5s9.5,4.3,9.5,9.5S315.3,126.1,310.1,126.1z
		 M310.1,111.1c-3,0-5.5,2.5-5.5,5.5s2.5,5.5,5.5,5.5s5.5-2.5,5.5-5.5S313.1,111.1,310.1,111.1z"/>
</g>
<g>
	<path fill="#F2992F" d="M424.1,414.1c-5.2,0-9.5-4.3-9.5-9.5s4.3-9.5,9.5-9.5s9.5,4.3,9.5,9.5S429.3,414.1,424.1,414.1z
		 M424.1,399.1c-3,0-5.5,2.5-5.5,5.5s2.5,5.5,5.5,5.5s5.5-2.5,5.5-5.5S427.1,399.1,424.1,399.1z"/>
</g>
<g>
	<path fill="#F2992F" d="M380.8,58.9c-1.5,0-3-0.4-4.5-1.1c-2.2-1.2-3.9-3.2-4.6-5.6c-0.7-2.4-0.5-5,0.7-7.2l3.5,1.9
		c-0.7,1.3-0.8,2.8-0.4,4.2c0.4,1.4,1.4,2.6,2.7,3.2c2.7,1.4,6,0.4,7.4-2.3l3.5,1.9C387.5,57.1,384.2,58.9,380.8,58.9z"/>
</g>
<g>
	<path fill="#D95E40" d="M168.2,270.2l-3.6-1.7c1.3-2.7,0.1-6-2.7-7.3c-2.7-1.3-6-0.1-7.3,2.7l-3.6-1.7c2.2-4.7,7.9-6.8,12.6-4.6
		c2.3,1.1,4,3,4.9,5.4C169.4,265.3,169.3,267.9,168.2,270.2z"/>
</g>
<g>
	<path fill="#539ECC" d="M459.1,340c-2.4-4.6-0.6-10.4,4-12.8c2.2-1.2,4.8-1.4,7.2-0.6c2.4,0.8,4.4,2.4,5.6,4.7l-3.5,1.8
		c-1.4-2.7-4.7-3.7-7.4-2.3c-2.7,1.4-3.7,4.7-2.3,7.4L459.1,340z"/>
</g>
<g>
	<path fill="#D95E40" d="M433.5,169.8h-19v-19h19V169.8z M418.5,165.8h11v-11h-11V165.8z"/>
</g>
<g>
	<path fill="#57BD8B" d="M319.6,473.2h-19v-19h19V473.2z M304.6,469.2h11v-11h-11V469.2z"/>
</g>
<g>
	<path fill="#D95E40" d="M342.5,341.4l-11.3-15.3l15.3-11.3l11.3,15.3L342.5,341.4z M336.8,327l6.5,8.9l8.9-6.5l-6.5-8.9L336.8,327z
		"/>
</g>
<g>
	<path fill="#57BD8B" d="M455.5,44.6l-13.4-13.4l13.4-13.4l13.4,13.4L455.5,44.6z M447.7,31.2l7.8,7.8l7.8-7.8l-7.8-7.8L447.7,31.2z
		"/>
</g>
<g>
	<rect x="80.5" y="191" transform="matrix(0.5289 0.8487 -0.8487 0.5289 207.3384 23.5032)" fill="#539ECC" width="4" height="15"/>
</g>
<g>
	<rect x="466" y="470.5" transform="matrix(0.9741 0.226 -0.226 0.9741 119.0637 -94.8036)" fill="#539ECC" width="15" height="4"/>
</g>
<g>
	
		<rect x="247.5" y="356" transform="matrix(0.5987 0.8009 -0.8009 0.5987 391.2526 -53.979)" fill="#539ECC" width="4" height="15"/>
</g>
<g>
	
		<rect x="306" y="215.5" transform="matrix(0.9714 0.2374 -0.2374 0.9714 60.5924 -68.2031)" fill="#F2992F" width="15" height="4"/>
</g>
<g>
	
		<rect x="261.5" y="28" transform="matrix(0.3834 0.9236 -0.9236 0.3834 195.2609 -221.4746)" fill="#57BD8B" width="4" height="15"/>
</g>
<g>
	
		<rect x="60.5" y="349" transform="matrix(0.3423 0.9396 -0.9396 0.3423 376.0644 175.7352)" fill="#D95E40" width="4" height="15"/>
</g>
<g>
	<path fill="#57BD8B" d="M235.8,184.6L218.6,168l23-6.6L235.8,184.6z M226.3,169.9l7.3,7l2.4-9.8L226.3,169.9z"/>
</g>
<g>
	<path fill="#539ECC" d="M60.5,54.7l-22.8-7.4l17.8-16L60.5,54.7z M45.6,45.7l9.6,3.1l-2.1-9.9L45.6,45.7z"/>
</g>
<g>
	<path fill="#D95E40" d="M179.4,437.9l7.1-22.8l16.2,17.6L179.4,437.9z M188.3,422.9l-3,9.6l9.8-2.2L188.3,422.9z"/>
</g>
<g>
	<path fill="#F2992F" d="M116.5,121.6h-19v-19h19V121.6z M101.5,117.6h11v-11h-11V117.6z"/>
</g>
<g>
	<path fill="#F2992F" d="M147.6,358.2l-17.7-7l7-17.7l17.7,7L147.6,358.2z M135.1,349l10.2,4.1l4.1-10.2l-10.2-4.1L135.1,349z"/>
</g>
</svg>
